<?xml version="1.0" encoding="UTF-8"?>
<svg viewBox="0 0 28 54" version="1.1" xmlns="http://www.w3.org/2000/svg" xmlns:xlink="http://www.w3.org/1999/xlink">
    <!-- Generator: Sketch 49.3 (51167) - http://www.bohemiancoding.com/sketch -->
    <title>Fill 1</title>
    <desc>Created with Sketch.</desc>
    <defs></defs>
    <g id="desigh" stroke="none" stroke-width="1" fill="none" fill-rule="evenodd">
        <g id="Artboard" transform="translate(-37.000000, -29.000000)" fill="#000000">
            <g id="Page-1" transform="translate(37.000000, 29.000000)">
                <path d="M14,54 L15.2339392,49.8669231 L12.7660608,49.8669231 L14,54 Z M19.6755683,28.8221538 C19.6755683,24.4370769 17.664551,21.9475385 13.9875778,21.8076923 C10.335449,21.9475385 8.32443169,24.4370769 8.32443169,28.8221538 C8.32443169,28.8844615 8.32857242,28.9495385 8.3340934,29.0146154 L8.33823414,29.0976923 L8.33271316,29.1793846 C8.32857242,29.2444615 8.32443169,29.3095385 8.32443169,29.3718462 C8.32443169,33.7555385 10.335449,36.2464615 14.0124222,36.3863077 C17.664551,36.2464615 19.6755683,33.7555385 19.6755683,29.3718462 C19.6755683,29.3095385 19.6714276,29.2444615 19.6672868,29.1793846 L19.6617659,29.0976923 L19.6659066,29.0146154 C19.6714276,28.9495385 19.6755683,28.8844615 19.6755683,28.8221538 Z M2.61987822,28.0384615 L5.16505039,28.0384615 C6.4045106,28.0384615 7.45625745,27.1578462 7.73092624,25.8687692 C7.91035812,25.0393846 7.64259055,24.1684615 7.01457898,23.5384615 L4.80894713,21.3244615 C4.12020477,20.6349231 3.15541337,20.3898462 2.22650834,20.6695385 C1.29070208,20.952 0.589537515,21.7273846 0.393542695,22.6952308 C0.232054005,23.4886154 0.105071445,24.3304615 0.0167357517,25.1958462 C-0.0564172446,25.9089231 0.180984932,26.6275385 0.665451002,27.1675385 C1.16371952,27.7213846 1.87592605,28.0384615 2.61987822,28.0384615 Z M20.6086141,37.1755385 C19.7680447,36.3309231 18.4374884,36.1855385 17.3719391,36.8183077 C17.1538603,36.9484615 16.9205989,37.0675385 16.673535,37.1713846 C15.6783782,37.5936923 15.0351839,38.52 15.0351839,39.5293846 L15.0351839,44.1844615 C15.0351839,45.0276923 15.4230328,45.8003077 16.1007332,46.3043077 C16.5548339,46.6435385 17.0848481,46.818 17.6245239,46.818 C17.8702076,46.818 18.1158912,46.782 18.3574341,46.7086154 C20.3242836,46.1146154 22.0219852,45.1384615 23.4091316,43.8064615 C23.9281038,43.308 24.2193356,42.6364615 24.2262368,41.9178462 C24.2345183,41.2075385 23.9626099,40.5401538 23.4615809,40.0389231 L20.6086141,37.1755385 Z M7.009058,34.6223077 C7.63430908,33.9950769 7.90207665,33.1269231 7.72540526,32.2989231 L7.38724519,32.3709231 L7.71850404,32.2643077 C7.45349696,30.9987692 6.40036986,30.1153846 5.15676892,30.1153846 L2.61573749,30.1153846 C1.87316556,30.1153846 1.16095903,30.4324615 0.662690511,30.9849231 C0.178224442,31.5235385 -0.059177735,32.2407692 0.012595016,32.9538462 C0.0995504644,33.8192308 0.225152779,34.6624615 0.385261223,35.4613846 C0.579875798,36.4306154 1.28242061,37.2073846 2.21684662,37.4898462 C2.47081174,37.5673846 2.72753735,37.6047692 2.98012222,37.6047692 C3.65368189,37.6047692 4.30101689,37.3375385 4.8020459,36.8349231 L7.009058,34.6223077 Z M12.9648161,39.5293846 C12.9648161,38.52 12.3216218,37.5936923 11.326465,37.1727692 C11.0794011,37.0675385 10.8461397,36.9484615 10.6280609,36.8183077 C9.56389189,36.1841538 8.23195526,36.3295385 7.39138592,37.1755385 L4.53841907,40.0389231 C4.03739006,40.5401538 3.76548175,41.2075385 3.77376322,41.9178462 C3.78066445,42.6364615 4.07189619,43.308 4.59086839,43.8064615 C5.97801482,45.1384615 7.67571644,46.1146154 9.64256586,46.7086154 C9.88410878,46.782 10.1297924,46.818 10.3754761,46.818 C10.9151519,46.818 11.4451661,46.6435385 11.8992668,46.3043077 C12.5769672,45.8003077 12.9648161,45.0276923 12.9648161,44.1844615 L12.9648161,39.5293846 Z M27.3373095,30.9849231 C26.839041,30.4324615 26.1268344,30.1153846 25.3842625,30.1153846 L22.8432311,30.1153846 C21.5996301,30.1153846 20.546503,30.9987692 20.2745947,32.2989231 C20.0979233,33.1269231 20.3656909,33.9950769 20.990942,34.6223077 L23.1979541,36.8349231 C23.6989831,37.3375385 24.3463181,37.6047692 25.0198778,37.6047692 C25.2724627,37.6047692 25.5291883,37.5673846 25.7831534,37.4898462 C26.7175794,37.2073846 27.4201242,36.4306154 27.6147388,35.4613846 C27.7748472,34.6624615 27.9004495,33.8192308 27.987405,32.9538462 C28.0591777,32.2407692 27.8217756,31.5235385 27.3373095,30.9849231 Z M7.41623034,21.0032308 C7.90759763,21.4961538 8.56735484,21.7509231 9.243675,21.7509231 C9.7198596,21.7509231 10.2057059,21.6249231 10.6460041,21.3646154 C10.8627026,21.2358462 11.0918233,21.1209231 11.3347465,21.0184615 C12.3257626,20.6003077 12.9648161,19.6809231 12.9648161,18.6770769 L12.9648161,14.0095385 C12.9648161,13.1787692 12.5659252,12.3867692 11.8992668,11.8883077 C11.2408898,11.3981538 10.4196439,11.25 9.64256586,11.484 C7.68951889,12.0752308 5.9987185,13.0430769 4.6157128,14.364 C4.09398011,14.8610769 3.80274837,15.5312308 3.79308665,16.2498462 C3.78480518,16.9629231 4.05533324,17.6330769 4.5577425,18.1370769 L7.41623034,21.0032308 Z M20.985421,23.5384615 C20.3574094,24.1684615 20.0896419,25.0393846 20.2690738,25.8687692 L20.6058536,25.7953846 L20.2745947,25.8978462 C20.5437426,27.1578462 21.5954894,28.0384615 22.8349496,28.0384615 L25.3801218,28.0384615 C26.1240739,28.0384615 26.8362805,27.7213846 27.334549,27.1675385 C27.8190151,26.6275385 28.0564172,25.9089231 27.9832642,25.1958462 C27.8949286,24.3304615 27.767946,23.4886154 27.6064573,22.6952308 C27.4104625,21.7273846 26.7092979,20.952 25.7734917,20.6695385 C24.8459669,20.3898462 23.878415,20.6349231 23.1910529,21.3244615 L20.985421,23.5384615 Z M16.1007332,11.8883077 C15.4340748,12.3867692 15.0351839,13.1787692 15.0351839,14.0095385 L15.0351839,18.6770769 C15.0351839,19.6809231 15.6742374,20.6003077 16.6652535,21.0184615 C16.9081767,21.1209231 17.1372974,21.2358462 17.3539959,21.3646154 C17.7942941,21.6249231 18.2801404,21.7509231 18.756325,21.7509231 C19.4326452,21.7509231 20.0924024,21.4961538 20.5837697,21.0032308 L23.4422575,18.1370769 C23.9446668,17.6330769 24.2151948,16.9629231 24.2069133,16.2498462 C24.1972516,15.5312308 23.9060199,14.8610769 23.3842872,14.364 C22.0012815,13.0430769 20.3104811,12.0752308 18.3574341,11.484 C17.5789758,11.25 16.7591102,11.3981538 16.1007332,11.8883077 Z M8.80337677,6.25569231 C8.80337677,5.50246154 8.96624571,4.71461538 9.25333671,3.96276923 C9.42310688,4.08461538 9.6191017,4.17046154 9.84270142,4.17046154 C10.4168834,4.17046154 10.8820261,3.70384615 10.8820261,3.12784615 C10.8820261,2.69307692 10.617019,2.322 10.2415923,2.16553846 C11.1870603,0.901384615 12.5203771,0 14,0 C15.4796229,0 16.8129397,0.901384615 17.7584077,2.16553846 C17.382981,2.322 17.1179739,2.69307692 17.1179739,3.12784615 C17.1179739,3.70384615 17.5831166,4.17046154 18.1572986,4.17046154 C18.3808983,4.17046154 18.5768931,4.08461538 18.7466633,3.96276923 C19.0337543,4.71461538 19.1966232,5.50246154 19.1966232,6.25569231 C19.1966232,9.13430769 16.8695298,8.34092308 14,8.34092308 C11.1304702,8.34092308 8.80337677,9.13430769 8.80337677,6.25569231 Z" id="Fill-1"></path>
            </g>
        </g>
    </g>
</svg>
