<?xml version="1.0" encoding="UTF-8"?>
<svg width="6px" height="61px" viewBox="0 0 6 61" version="1.1" xmlns="http://www.w3.org/2000/svg" xmlns:xlink="http://www.w3.org/1999/xlink">
    <!-- Generator: Sketch 49.3 (51167) - http://www.bohemiancoding.com/sketch -->
    <title>Page 1</title>
    <desc>Created with Sketch.</desc>
    <defs></defs>
    <g id="desigh" stroke="none" stroke-width="1" fill="none" fill-rule="evenodd">
        <g id="Artboard" transform="translate(-410.000000, -582.000000)" fill="#EAB871">
            <path d="M443,615 C441.098,615 440.132,613.842 439.28,612.82 C438.465,611.844 437.761,611 436.327,611 C434.893,611 434.189,611.844 433.374,612.82 C432.522,613.842 431.556,615 429.654,615 C427.752,615 426.787,613.842 425.935,612.82 C425.121,611.843 424.418,611 422.985,611 C421.553,611 420.851,611.843 420.038,612.82 C419.187,613.842 418.222,615 416.322,615 C414.421,615 413.456,613.842 412.604,612.82 C411.791,611.843 411.088,611 409.656,611 C408.224,611 407.521,611.843 406.708,612.82 C405.856,613.842 404.891,615 402.991,615 C401.09,615 400.126,613.842 399.274,612.82 C398.461,611.843 397.758,611 396.326,611 C394.895,611 394.192,611.843 393.378,612.82 C392.527,613.842 391.562,615 389.662,615 C387.762,615 386.798,613.842 385.947,612.82 C385.134,611.843 384.431,611 383,611 L383,610 C384.9,610 385.864,611.158 386.715,612.18 C387.528,613.157 388.23,614 389.662,614 C391.094,614 391.796,613.157 392.61,612.18 C393.461,611.158 394.426,610 396.326,610 C398.227,610 399.191,611.158 400.043,612.18 C400.856,613.157 401.559,614 402.991,614 C404.423,614 405.125,613.157 405.939,612.18 C406.791,611.158 407.755,610 409.656,610 C411.557,610 412.521,611.158 413.373,612.18 C414.187,613.157 414.89,614 416.322,614 C417.753,614 418.456,613.157 419.269,612.18 C420.12,611.158 421.085,610 422.985,610 C424.886,610 425.852,611.158 426.704,612.18 C427.518,613.157 428.221,614 429.654,614 C431.088,614 431.792,613.156 432.606,612.18 C433.458,611.158 434.424,610 436.327,610 C438.229,610 439.195,611.158 440.047,612.18 C440.862,613.157 441.566,614 443,614 L443,615 Z" id="Page-1" transform="translate(413.000000, 612.500000) rotate(-90.000000) translate(-413.000000, -612.500000) "></path>
        </g>
    </g>
</svg>