<svg xmlns="http://www.w3.org/2000/svg" width="60" height="5" viewBox="0 0 60 5">
    <path fill-rule="evenodd" d="M60 5c-1.902 0-2.868-1.158-3.72-2.18C55.465 1.844 54.761 1 53.327 1s-2.138.844-2.953 1.82C49.522 3.842 48.556 5 46.654 5c-1.902 0-2.867-1.158-3.719-2.18-.814-.977-1.517-1.82-2.95-1.82-1.432 0-2.134.843-2.947 1.82C36.187 3.842 35.222 5 33.322 5c-1.901 0-2.866-1.158-3.718-2.18C28.791 1.843 28.088 1 26.656 1s-2.135.843-2.948 1.82C22.856 3.842 21.891 5 19.991 5c-1.901 0-2.865-1.158-3.717-2.18C15.461 1.843 14.758 1 13.326 1c-1.431 0-2.134.843-2.948 1.82C9.527 3.842 8.562 5 6.662 5c-1.9 0-2.864-1.158-3.715-2.18C2.134 1.843 1.431 1 0 1V0c1.9 0 2.864 1.158 3.715 2.18C4.528 3.157 5.23 4 6.662 4c1.432 0 2.134-.843 2.948-1.82C10.461 1.158 11.426 0 13.326 0c1.901 0 2.865 1.158 3.717 2.18.813.977 1.516 1.82 2.948 1.82s2.134-.843 2.948-1.82C23.791 1.158 24.755 0 26.656 0s2.865 1.158 3.717 2.18C31.187 3.157 31.89 4 33.322 4c1.431 0 2.134-.843 2.947-1.82C37.12 1.158 38.085 0 39.985 0c1.901 0 2.867 1.158 3.719 2.18.814.977 1.517 1.82 2.95 1.82 1.434 0 2.138-.844 2.952-1.82C50.458 1.158 51.424 0 53.327 0c1.902 0 2.868 1.158 3.72 2.18C57.862 3.157 58.566 4 60 4v1z"/>
</svg>
